<svg xmlns="http://www.w3.org/2000/svg" xml:space="preserve" viewBox="0 0 512 512"><path fill="#004ee4" d="m73.7 410.8 28.9-5.8c8.5-2.4 14.8-9.3 16.8-17.6h.2c-7-4.3-12.3-11.2-14.5-19.3H96c-8.8 0-16-7.2-16-16s7.2-16 16-16h80c8.8 0 16 7.2 16 16s-7.2 16-16 16h-9.1c-2.1 8.2-7.4 15.1-14.5 19.3h.2c1.9 8.4 8.3 15.2 16.8 17.6l28.9 5.8c.6.1 1.1.3 1.7.5V328c0-35.3-28.7-64-64-64s-64 28.7-64 64v83.3c.6-.1 1.1-.4 1.7-.5zM280 432h192v40H280v-40zM397.3 171.4c1.8 6.7 2.7 13.6 2.7 20.6 0 44.1-35.9 80-80 80s-80-35.9-80-80 35.9-80 80-80c7 0 13.9.9 20.6 2.7l12.1-12.1c4.1-4.2 6.6-9.6 7-15.3-1.7-.7-3.4-1.3-5.2-1.8L349.6 72h-59.2l-4.9 13.5c-5.7 1.8-11.2 4.1-16.4 6.8l-13-6.1-41.9 41.9 6.1 13c-2.7 5.2-4.9 10.7-6.8 16.4l-13.5 4.9v59.2l13.5 4.9c1.8 5.7 4.1 11.2 6.8 16.4l-6.1 13 41.9 41.9 13-6.1c5.2 2.7 10.7 4.9 16.4 6.8l4.9 13.5h59.2l4.9-13.5c5.7-1.8 11.2-4.1 16.4-6.8l13 6.1 41.9-41.9-6.1-13c2.7-5.2 4.9-10.7 6.8-16.4l13.5-4.9v-59.2l-13.5-4.9c-.6-1.7-1.2-3.5-1.8-5.2-5.7.4-11.1 2.8-15.3 6.9l-12.1 12.2z"/><path d="M104 200h16v16h-16zM40 200h16v16H40zM72 200h16v16H72zM171.6 397.3c-4-1.1-7.3-3.8-9.4-7.3 4.4-3.8 8-8.5 10.4-13.9h3.4c13.2 0 24-10.8 24-24s-10.8-24-24-24H96c-13.2 0-24 10.8-24 24s10.8 24 24 24h3.4c2.4 5.4 6 10.1 10.4 14-2 3.5-5.2 6.1-8.8 7.2L72.1 403C53.5 406.7 40 423.2 40 442.2V472h192v-29.8c0-19-13.5-35.5-32.1-39.2l-28.3-5.7zM176 344c4.4 0 8 3.6 8 8s-3.6 8-8 8v-16zm-80 16c-4.4 0-8-3.6-8-8s3.6-8 8-8v16zm16-16h48v16c0 13.2-10.8 24-24 24s-24-10.8-24-24v-16zm36.3 53.9c.8 1.3 1.6 2.6 2.6 3.8L136 419.5l-14.9-17.9c.9-1.2 1.8-2.5 2.6-3.8 3.9 1.3 8 2.1 12.3 2.1 4.3.1 8.4-.8 12.3-2zm67.7 44.3V456H56v-13.8c0-11.4 8.1-21.3 19.2-23.5l29.5-6c1.2-.4 2.4-.8 3.6-1.3l27.6 33.1 27.6-33.2c1.3.6 2.7 1.1 4.2 1.5l28.9 5.8c11.3 2.3 19.4 12.2 19.4 23.6zM472 328H280v80h192v-80zm-16 64H296v-48h160v48zM280 424h192v16H280zM280 456h160v16H280zM456 456h16v16h-16z"/><path d="M480 168h-40v16h40c4.4 0 8 3.6 8 8v40h-63.5c-1.4 3.7-3 7.4-4.8 10.9l2.4 5.1H488v232c0 4.4-3.6 8-8 8H32c-4.4 0-8-3.6-8-8V248h193.9l2.4-5.1c-1.8-3.5-3.3-7.2-4.8-10.9H24v-40c0-4.4 3.6-8 8-8h168v-16H32c-13.2 0-24 10.8-24 24v288c0 13.2 10.8 24 24 24h448c13.2 0 24-10.8 24-24V192c0-13.2-10.8-24-24-24z"/><path d="M320 272c44.1 0 80-35.9 80-80 0-7-1-13.9-2.7-20.6l12.1-12.1c4.2-4.2 9.5-6.6 15.3-6.9.9-.1 1.8-.1 2.7 0 20.5 1.2 40.6-6.4 55.2-20.9 18.4-18.4 25.7-45.2 19.1-70l-3.6-13.4-41 41-29.7-4.2-4.2-29.7 41-41-13.4-3.6c-24.8-6.6-51.6.7-70 19.1-14.5 14.5-22.1 34.6-20.9 55.2.1.9 0 1.8 0 2.7-.4 5.7-2.8 11.1-7 15.3L340.8 115c-6.7-1.8-13.6-2.7-20.6-2.7-44.1 0-80 35.9-80 80S275.9 272 320 272zm6.8-143.4L256.4 199c-.2-2.3-.4-4.6-.4-7 0-35.3 28.7-64 64-64 2.3 0 4.6.3 6.8.6zM320 256c-2.4 0-4.7-.2-7-.4l70.4-70.4c.2 2.3.5 4.5.5 6.8.1 35.3-28.6 64-63.9 64zm71.9-215.3c10.6-10.6 24.9-16.5 39.5-16.8l-25.3 25.3 7.1 49.5 49.5 7.1L488 80.6c-.2 14.5-6.1 28.8-16.8 39.4-11.3 11.3-27 17.2-42.9 16.3-11.2-.7-22.2 3.6-30.3 11.6l-103 103c-15.3-6.5-27.5-18.7-34-34l103-103c8-8 12.3-19.1 11.6-30.3-.9-15.9 5.1-31.6 16.3-42.9z"/></svg>
