<svg xmlns="http://www.w3.org/2000/svg" xml:space="preserve" viewBox="0 0 512 512"><path fill="#004EE4" d="M39.6 39.5h111.8v111.4H39.6zM55.3 352h64.3v135.7H55.3zM167.6 256.3h64.3v231.4h-64.3zM279.9 320.8h64.3v166.8h-64.3zM392.2 175.7h64.3v311.9h-64.3z"/><path d="M7.6 503.2v-15.5h496.8v15.5H7.6zM379.7 137.7c-.9 1.4-1.9 2.7-2.8 4.1-16 24.2-32 48.4-47.9 72.7-1.3 2-2.3 3.7-5.5 2.8-14.9-4.5-27.9-.7-39.3 9.6-.9.8-3.2 1.4-4.1.9-14.1-7.8-28.1-15.9-42-23.8 4.4-21.5-2.2-38.1-18.5-47.4-15-8.5-33.8-6.4-46.6 5.1-14.1 12.7-16.7 30-7.5 50.6-16.6 15.4-33.3 30.9-50 46.3-1.8-1.4-3.1-2.5-4.4-3.4-14.7-10.8-34.6-10.2-48.8 1.3-14.1 11.4-18.7 31-11.2 47.5 8.8 19.2 30.7 28.3 50.4 21.1 19.9-7.3 30.4-28.6 24.5-49.2-.5-1.7-.3-4.5.8-5.5 15.8-14.9 31.7-29.6 47.7-44.3.9-.8 3.2-1.2 4.2-.7 17.8 9.9 34.2 7.8 49.4-5.6.9-.8 3.2-1.1 4.2-.5 14 7.8 27.8 15.7 41.6 23.6-3.8 24.4 3.7 41 22 49.1 16.9 7.5 36.6 2.6 47.8-11.8 12.5-16 11.4-34.3-3.3-53.7 17.8-27 35.7-54.1 53.6-81.2l-4.1 2.4-10.2-10zM87.2 311.4c-13.1-.1-23.8-10.9-23.8-24 0-13.3 11-24.1 24.3-24 13.1.1 23.8 10.9 23.8 24 .1 13.3-10.9 24.1-24.3 24zm112.5-96.1c-13.1-.1-23.9-10.8-23.9-23.9-.1-13.3 10.9-24.2 24.2-24.1 13.1.1 23.9 10.8 23.9 23.9 0 13.3-10.9 24.2-24.2 24.1zm112.6 64.1c-13.3.1-24.3-10.8-24.2-24.1 0-13.3 11-24.1 24.4-23.9 13.1.1 23.8 11 23.7 24.1-.1 13-10.8 23.8-23.9 23.9z"/><path fill="#004EE4" d="m498.2 59.8-12.9-3.6 7.1-12.4-31.5-31.2-10.3 6-3.1-11.4H403l-3.1 11.4-10.3-6-31.5 31.2 7 12.5-12.8 3.5v44.4l11 3-5.2 9.2 21.5 21.3 10 9.9 4.1-2.4 6.1-3.5 3.2 11.5h44.4l3.1-11.5 10.2 5.9 31.5-31.2-5.2-9.1 11.1-3 .1-44.5zm-73.8 59.7c-22.4 0-40.4-17.9-40.4-40.2 0-22.4 17.9-40.3 40.3-40.3s40.4 17.9 40.4 40.2c.1 22.3-17.9 40.3-40.3 40.3z"/><path d="M424.4 38.9c-22.4 0-40.4 18-40.4 40.3s18 40.3 40.4 40.2c22.4 0 40.3-18 40.3-40.3 0-22.3-17.9-40.2-40.3-40.2zm-.1 64.3c-13.1 0-23.9-10.8-24-23.8-.1-13.3 10.8-24.2 24.1-24.2 13.1 0 23.9 10.7 24 23.8.1 13.3-10.8 24.2-24.1 24.2zM39.6 55.1V39.5h111.8v15.6H39.6zM39.7 87.1V71.2h111.6v15.9H39.7zM151.4 103.3v15.9H39.6v-15.9h111.8zM39.8 135.2h15.5v15.7H39.8v-15.7zM87.5 151H71.7v-15.6h15.8V151zM119.7 135.3v15.6h-16.1v-15.6h16.1zM135.8 135.3h15.6v15.6h-15.6v-15.6z"/></svg>