<svg xmlns="http://www.w3.org/2000/svg" viewBox="0 0 200 45.6" role="img"><title>Clever Marketing, Ltd.</title><path d="M23.7 37.9c-4.2 0-7.9-1.5-10.8-4.3s-4.3-6.5-4.3-10.8c0-4.2 1.4-7.8 4.2-10.8s6.3-4.4 10.5-4.4c4.1 0 7.7 1.5 10.8 4.6l5.5-5.8C35.2 2.1 29.8 0 23.3 0 16.6 0 10.9 2.1 6.6 6.5 2.2 10.9 0 16.3 0 22.7s2.2 11.8 6.6 16.2c4.3 4.4 10 6.6 16.8 6.6 3.9 0 7.5-.7 10.8-2.3 3.2-1.5 5.8-3.6 7.9-6.1l-5.9-5.3c-3.2 4.1-7.4 6.1-12.5 6.1zM48 0h8.2v44.9H48zM78.1 13.6c-4.4 0-8 1.6-10.8 4.7-2.8 3.1-4.2 6.9-4.2 11.3 0 4.7 1.5 8.6 4.6 11.5 3 3 6.9 4.4 11.5 4.4 2.4 0 4.7-.5 7-1.5 2.2-1 4.1-2.3 5.6-4l-4.7-4.7c-2.2 2.3-4.7 3.6-7.7 3.6-2.2 0-4-.7-5.6-2-1.6-1.3-2.5-3.1-2.6-5.3h21.2c.1-.7.2-1.5.2-2.3 0-4.3-1.4-8-4.1-11.1-2.7-3.1-6.2-4.6-10.4-4.6zm-6.6 12c.2-1.5 1-2.6 2.2-3.8 1.3-1.1 2.7-1.6 4.3-1.6 1.6 0 3 .5 4.2 1.6 1.2 1.2 1.8 2.3 1.9 3.8H71.5zM111.7 32.9l-8.4-18.7h-8.5l14.1 30.7h5.7l14.1-30.7h-8.6zM160 29.3c0-4.3-1.4-8-4.1-11.1s-6.2-4.6-10.4-4.6c-4.4 0-8 1.6-10.8 4.7-2.8 3.1-4.2 6.9-4.2 11.3 0 4.7 1.5 8.6 4.6 11.5 3 3 6.9 4.4 11.5 4.4 2.4 0 4.7-.5 7-1.5 2.2-1 4.1-2.3 5.6-4l-4.7-4.7c-2.2 2.3-4.7 3.6-7.7 3.6-2.2 0-4-.7-5.6-2-1.6-1.3-2.5-3.1-2.6-5.3h21.2c.1-.7.2-1.4.2-2.3zm-21.1-3.7c.2-1.5 1-2.6 2.2-3.8 1.3-1.1 2.7-1.6 4.3-1.6 1.6 0 3 .5 4.2 1.6 1.2 1.2 1.8 2.3 1.9 3.8h-12.6zM186.5 13.8l-.9 7.7c-.6-.2-1.6-.3-3-.3-1.6 0-3.2.4-4.5 1.4-1.4 1-2.4 2-3 3v19.3h-8.2V14.2h7.9v3.1c2-2.5 5-3.7 8.9-3.7.7 0 1.6.1 2.8.2zM188.7 14.2h4.4v1h-1.6v5.1h-1.2v-5.1h-1.6v-1zm5.2 0h.7l2.3 3.5 2.3-3.5h.7v6.1h-1.1v-3.5l-1.5 2.3h-.7l-1.5-2.3v3.5H194v-6.1h-.1z"></path></svg>