<svg xmlns="http://www.w3.org/2000/svg" xml:space="preserve" viewBox="0 0 1486.6 341.5" role="img"><title>Clever Marketing, Ltd.</title><path d="M177.8 284.4c-31.5 0-59.3-11.3-81-32.3s-32.3-48.8-32.3-81c0-31.5 10.5-58.5 31.5-81s47.3-33 78.8-33c30.8 0 57.8 11.3 81 34.5L297.1 48c-33-32.3-73.5-48-122.3-48-50.3 0-93 15.8-125.3 48.8C16.5 81.8 0 122.3 0 170.3s16.5 88.5 49.5 121.6c32.3 33 75 49.5 126.1 49.5 29.3 0 56.3-5.3 81-17.3 24-11.3 43.5-27 59.3-45.8l-44.3-39.8c-24 30.9-55.5 45.9-93.8 45.9zM360.2 0h61.5v336.9h-61.5zM586 102.1c-33 0-60 12-81 35.3s-31.5 51.8-31.5 84.8c0 35.3 11.3 64.5 34.5 86.3 22.5 22.5 51.8 33 86.3 33 18 0 35.3-3.8 52.5-11.3 16.5-7.5 30.8-17.3 42-30l-35.3-35.3c-16.5 17.3-35.3 27-57.8 27-16.5 0-30-5.3-42-15-12-9.8-18.8-23.3-19.5-39.8h159.1c.8-5.3 1.5-11.3 1.5-17.3 0-32.3-10.5-60-30.8-83.3s-46.4-34.4-78-34.4zm-49.5 90c1.5-11.3 7.5-19.5 16.5-28.5 9.8-8.3 20.3-12 32.3-12s22.5 3.8 31.5 12c9 9 13.5 17.3 14.3 28.5h-94.6zM838.2 246.9l-63.1-140.3h-63.7l105.8 230.3h42.7l105.8-230.3h-64.5zM1200.6 219.9c0-32.3-10.5-60-30.8-83.3s-46.5-34.5-78-34.5c-33 0-60 12-81 35.3s-31.5 51.8-31.5 84.8c0 35.3 11.3 64.5 34.5 86.3 22.5 22.5 51.8 33 86.3 33 18 0 35.3-3.8 52.5-11.3 16.5-7.5 30.8-17.3 42-30l-35.3-35.3c-16.5 17.3-35.3 27-57.8 27-16.5 0-30-5.3-42-15-12-9.8-18.8-23.3-19.5-39.8h159.1c.7-5.2 1.5-10.5 1.5-17.2zm-158.3-27.8c1.5-11.3 7.5-19.5 16.5-28.5 9.8-8.3 20.3-12 32.3-12s22.5 3.8 31.5 12c9 9 13.5 17.3 14.3 28.5h-94.6zM1399.4 103.6l-6.8 57.8c-4.5-1.5-12-2.3-22.5-2.3-12 0-24 3-33.8 10.5-10.5 7.5-18 15-22.5 22.5v144.8h-61.5V106.6h59.3v23.3c15-18.8 37.5-27.8 66.8-27.8 5.3 0 12 .7 21 1.5zM1409.4 60.1h30.3V67h-11v35.1h-8.3V67h-11v-6.9zm35.8 0h4.9l15.9 24.1 15.9-24.1h4.9v42h-7.6V78l-10.4 15.9h-4.9L1453.4 78v24.1h-7.6v-42h-.6z"/></svg>