<svg xmlns="http://www.w3.org/2000/svg" xml:space="preserve" viewBox="0 0 510 512"><path fill="#1464ff" d="M374.3 55.1H327c-44.2 0-79.9 37-79.9 82.5v57.5c.3-1.1.6-2.2 1-3.3v-.5c3.1-12.5 13.5-21.3 28.7-23.6.5-.1.9-.2 2.1-.6 0-2.6-.1-5.3 0-8 .3-9.2 4.9-15.7 12.5-20.5 2-1.3 3.9-3.2 4.9-5.3 3.9-8.5 12.2-14.1 21-13.6 9.6.5 17.6 6.8 20.3 16 .8 2.8 1.4 5.6 2.1 8.4 1.5 5.7 3.6 7.4 9.6 7.5 15.2.1 30.3.2 45.5 0 11.6-.2 20.8 3.4 26.5 14.2.6 1.1 2.8 1.8 4.3 1.9 14.6 1.4 26 11.7 28.8 25.4v-55.5c-.2-45.5-36-82.5-80.1-82.5z"/><path d="M502.9 406c-.8-61-45.5-113.5-105.6-123.9-4.8-.8-9.6-1.5-14.4-2.2 1-1.7 2-2.3 3.1-2.8 4.2-1.8 8.1-3.9 11.6-6.3 12.2-8.2 20.2-20 23.9-35.5.6-2.5 1.4-3.8 4.1-3.6 1.1.1 2.3-.1 3.4-.4 10.6-2.2 19-9.1 23.1-18.3 2.1-4.7 3.1-9.9 2.8-15.4-.1-1.6-.3-3.1-.6-4.6-2.8-13.7-14.2-24-28.8-25.4-1.5-.1-3.8-.8-4.3-1.9-5.6-10.8-14.9-14.4-26.5-14.2-15.2.2-30.3.1-45.5 0-6 0-8.1-1.8-9.6-7.5-.7-2.8-1.3-5.6-2.1-8.4-2.7-9.2-10.7-15.5-20.3-16-8.8-.5-17.1 5.2-21 13.6-1 2.1-2.9 4-4.9 5.3-7.6 4.9-12.2 11.3-12.5 20.5-.1 2.7 0 5.4 0 8-1.1.3-1.6.5-2.1.6-15.2 2.3-25.6 11.1-28.7 23.6-.6 2.6-1 5.3-1 8.1 0 5.8 1.3 11 3.6 15.5 4.7 9.1 13.9 15.1 26.4 17 1.1.2 2.7 1.6 3 2.7 3.7 15.7 11.7 27.6 24 36 3.8 2.6 7.9 4.8 12.5 6.7 1 .4 1.7 1.3 3.3 2.5-3.8.5-6.4.9-8.9 1.2-53.2 6-98.8 48-109.3 100.8-4.9 24.5-3.5 49.3-2.2 73.8 1.1 20.7 18.3 33.6 39 32.4 7.6-.4 15.2-.2 22.7-.1 1.2 0 3.2.6 3.6 1.5 3.5 7.6 9.8 11.7 17.2 14.4h137.5c7.6-2.6 13.8-6.8 17.3-14.3.4-.9 2.3-1.6 3.5-1.7 7.6-.1 15.2-.3 22.8.1 22.8 1.2 39.5-14.2 39.7-37.1.3-14.7.4-29.7.2-44.7zM387.4 297.3c-3.1 9.3-6.2 18.7-9.6 29-5.4-7.1-10.2-13.7-15.4-20.5 8.3-4.3 14-12.9 25-8.5zm35.9-81.7v-31c8-.6 15 5.9 15.7 14.3.6 8.9-6.2 16.3-15.7 16.7zm30.9-20.9c0 2.1-.1 4.2-.3 6.2.1-1.4.2-2.8.2-4.2.1-.7.1-1.4.1-2zm-1.3 14.3c.2-1.1.3-2.1.5-3.2-.2 1.1-.3 2.2-.5 3.2zm.6-4c.2-1.3.3-2.7.4-4-.1 1.3-.2 2.6-.4 4zm-174.7 10.3c-8.3.8-15.7-6.2-15.9-15-.2-8.9 7.1-16.3 15.9-15.7v30.7zm16.1 5.6v-56.2c0-10.6 1.7-12.4 12.2-12.6 1.1 0 2.2-.2 3.9-.3 0-3.7-.6-7.1.2-10.1.6-2.2 2.9-4.9 4.8-5.3 1.5-.3 4.5 2.1 5.5 4 1.6 3.1 1.9 6.8 2.9 10.2 3.2 10.6 11.9 17.3 23 17.3 16.1.1 32.3 0 48.4 0 8.5 0 11.1 2.6 11.1 10.9v42.6c-.1 22.1-13.3 38.5-35 42.9-3.7.8-5.7 1.9-4.9 5.8.3 1.4.5 2.8.5 4.1.3 8.1-4 13.4-12 17.3-3.4 1.7-5.4 2-9 .2-8-4-12.4-9.4-12.1-17.5 0-1.3.2-2.8.5-4.3.7-3.2-.6-4.7-4.2-5.4-22.6-4.4-35.8-20.6-35.8-43.6zm63.7 106.6h-15.2c2.7-3.6 4.9-6.6 7.6-10.1 2.6 3.4 4.8 6.5 7.6 10.1zm-19.1-21.6c-5.1 6.8-9.9 13.3-15.3 20.4-3.4-10.2-6.5-19.5-9.7-28.9 11.1-4.6 16.9 4.3 25 8.5zm-76.8 60.3c.9 17.2.2 34.5.2 51.8v5.9h-31.7v16h31.5v31.8c-10.8 0-21.5.7-32.2-.2-8.1-.7-14.9-8.1-15-16.1-.2-23.3-3.1-47 2-70 9.5-42.7 35.9-70.7 77.3-84.6 1-.4 2.2-.5 3.7-.8 3.1 9.2 6.1 18.3 9.4 28.1-2.8 0-4.8.1-6.9 0-30-2.2-39.8 7.5-38.3 38.1zm160 114.2c-.4 4.5-3 6.9-7.5 7.4-1.6.1-3.2.1-4.8.1H292.8c-12.8 0-14.7-2.2-13.4-15.7h143.4c0 2.9.2 5.6-.1 8.2zm.2-27.8c0 .9-.2 1.9-.3 3H279.1V355c0-8.6 2.3-11 10.8-11h123c7.2 0 10 2.5 10 9.3v99.3zm64-2.9c-.1 15.1-7.9 22.5-22.9 22.3-8.2-.1-16.4 0-25 0v-31.8h31.6V424h-31.7v-69.9c0-16.3-10-26.2-26.2-26.3h-18.6c3.2-9.7 6.2-18.7 9.3-28.1 13.9 3.5 26.3 9.4 37.4 17.8 30.1 22.8 45.5 53.2 46 91 .3 13.8.2 27.5.1 41.2zM205.4 263.9c15.6-.1 25.4-9.8 25.5-25.4.1-16.3 0-32.6 0-48.9v-5.2c5.7-.4 10.8-.8 16-1.1v-15.8h-15.7v-79c10.1-1.3 19.2.1 26.2 8.1 3.3-4.7 6.3-8.9 9.2-13-7.1-7.4-16.9-11.5-28-11.5-20.7-.1-41.3 0-62 0-10.5 0-21.5 1.9-31.3-.7-9.9-2.7-18.7-9.9-27.9-15.1-26.2-15-52.4-30.1-78.6-44.9C26 4.1 12.9 9.2 7.9 22.9c-.2.6-.6 1.1-.9 1.7v207.2c2.3 3.6 4 7.8 7 10.8 6.9 6.8 16.2 7.2 25.9 1.6 31.9-18.2 64.1-36 95.6-55 10.3-6.2 20.5-4.7 31.5-5v4.3c0 16.9-.1 33.9 0 50.8.1 14.2 10.2 24.3 24.4 24.6 4.6.1 9.3.1 14 0zM39 222.1c0 4.5-8.4 11.1-12.5 9.5-1.4-.6-2.8-2.6-3.2-4.2-.6-2.1-.2-4.5-.2-6.7V33.3c0-1.6-.3-3.4.2-4.8.5-1.5 1.7-3.3 3-3.9 4.1-1.7 12.7 4.7 12.8 9.2v110.4c-.1 25.9-.1 51.9-.1 77.9zm96-55.5c0 3.5-.9 5.4-4 7.2-23.7 13.4-47.3 26.9-71 40.4-1.3.8-2.8 1.4-4.6 2.4V39.2c3.3 1.8 6 3.3 8.6 4.8 22.1 12.6 44.2 25.3 66.4 37.8 3.6 2 4.8 4.2 4.7 8.3-.3 25.6-.2 51.1-.1 76.5zm16.3 1V88.5h63.5v15.3h-47.5v16.3h47.5v15.8h-47.4V152h47.4v15.7c-21.2-.1-42.2-.1-63.5-.1zm40.2 80.4c-5.2-.2-8.4-3-8.4-8-.1-18.3-.1-36.7-.1-55.6h32V237c0 8.4-2.7 11-10.9 11.1-4.2 0-8.4.1-12.6-.1zM141.4 438.5c-5.6 0-11.3-.3-16.9.1-4.5.3-7-.9-8.1-5.7-1.3-6.1-3.6-12-5.4-18-1.2-4.1-3.6-6.9-8.2-6.8-4.3.1-6.6 2.7-7.8 6.7-2 6.8-4.4 13.5-6.2 20.3-.8 2.7-2.1 3.6-4.8 3.5-6.6-.1-13.2 0-19.8 0-4.1 0-7.4 1.4-8.7 5.5-1.2 4 .3 7.2 3.7 9.6 5.3 3.9 10.4 8.2 15.8 11.9 2.7 1.9 3.4 3.6 2.3 6.8-2.2 6.1-3.9 12.3-5.8 18.4-2.1 7-1.5 8.8 4.3 13.1h4.8c7.3-5.5 14.7-10.9 22.4-16.7 7.3 5.5 14.7 11.1 22.1 16.7h4.8c5.9-4 6.7-6.1 4.6-13-2-6.5-4.2-12.9-5.9-19.4-.4-1.5.4-4.1 1.6-5.1 5.3-4.5 10.9-8.5 16.4-12.7 3.2-2.4 5.1-5.4 3.8-9.6-1.3-4.4-4.8-5.6-9-5.6zm-29.5 34.7c-6-5.4-11.6-5.6-17.7 0 3.5-8.2.9-13.9-6.6-18.3 8.1.7 13.9-1.5 15.3-10.9 1.6 9.2 7.1 11.7 15.4 10.8-7 4.4-10.2 9.8-6.4 18.4z"/><path d="M141 342.4c-6.3 0-12.6-.2-18.9.1-3 .1-4.2-1-5-3.8-1.8-6.7-4.1-13.2-6.1-19.8-1.3-4.1-3.6-6.8-8.2-6.7-4.4.1-6.6 2.7-7.8 6.7-1.9 6.3-4 12.6-5.8 18.9-.9 3.5-2.4 5-6.3 4.8-6.3-.4-12.6-.1-18.9-.1-4 0-7.4 1.5-8.6 5.7-1.2 4 .4 7.2 3.7 9.6 5.6 4.1 11.2 8.2 16.5 12.7 1.2 1 2.1 3.6 1.7 5.1-1.8 6.8-4.1 13.6-6.2 20.3-1.4 4.2-1.2 8.1 2.8 10.7 3.8 2.6 7.3 1.3 10.6-1.3 6-4.6 12-9.2 18.5-14.1 6.5 4.9 12.6 9.6 18.8 14.3 3.4 2.6 6.9 3.6 10.6.8 3.4-2.6 3.9-6 2.6-9.9-2.3-6.9-4.5-13.8-6.3-20.8-.4-1.5.4-4.1 1.6-5.1 5.2-4.4 10.6-8.4 16.1-12.4 3.4-2.5 5.5-5.5 4.1-9.9-1.5-4.7-5.2-5.8-9.5-5.8zm-28.7 35.2c-6.3-5.7-12-6.2-18.2-.1 3.4-8.3 1.5-14.2-6.6-18 4.1-1 7.9-.9 10.5-2.7 2.5-1.7 3.7-5.2 5.7-8.4 1.1 8.7 6.3 11.4 14.7 10.4-7.3 4.7-10.7 10.2-6.1 18.8z"/><path d="M141.2 246.5c-6 0-11.9-.2-17.9.1-3.6.2-5.5-.8-6.4-4.5-1.7-6.7-4-13.2-6.1-19.8-1.2-3.8-3.7-6-7.8-6s-6.6 2.3-7.8 6c-1.2 3.8-2.4 7.7-3.6 11.5-1.3 4.1-1.6 9.8-4.5 11.8-3.1 2.2-8.6.9-13.1 1.2v-.2H63.8c-3.9.1-7 1.5-8.3 5.4-1.3 4 .1 7.2 3.5 9.7 5.6 4.1 11 8.5 16.6 12.5 2.3 1.6 2.7 3.1 1.8 5.7-2.3 6.9-4.3 13.8-6.5 20.7-1.3 3.9-.7 7.4 2.8 9.9s7 1.8 10.2-.8c5.4-4.1 10.9-8.1 16.1-12.4 2.1-1.7 3.6-1.8 5.8-.1 5.3 4.3 10.7 8.3 16.1 12.4 3.3 2.5 6.7 3.3 10.2.8 3.4-2.5 4.1-5.8 2.8-9.9-2.2-6.9-4.2-13.9-6.5-20.7-.9-2.6-.4-4.1 1.8-5.7 5.5-4 10.8-8.2 16.2-12.3 3.4-2.6 5.4-5.6 3.8-10-1.3-4.2-4.8-5.3-9-5.3zm-28.9 34.7c-9-5.3-9-5.3-19 .6 4.1-8.4 2.4-14.3-5.6-18.7 8.2.6 13.9-1.8 15.3-10.9 1.6 8.9 6.9 11.5 15.3 10.8-7.2 4.5-10.6 10-6 18.2zM351.2 376c-13.3-.1-24.1 10.5-24.2 23.7-.2 13.1 10.6 24 23.8 24.1 13.2.1 24.1-10.5 24.2-23.7.1-13.1-10.6-24-23.8-24.1zm-.7 31.9c-4.2-.2-7.5-3.8-7.5-8 0-4.4 3.6-8 8-7.9 4.4.1 7.8 3.7 7.7 8.2-.1 4.5-3.8 8-8.2 7.7zM352.7 248c13.5-.9 25.6-9.5 28.9-20.7-4.5-2.2-9-4.5-13.5-6.7-8.5 15-25.9 15.1-34.5.1-4.4 2.2-8.9 4.4-13.5 6.8 5.7 13.3 19 21.5 32.6 20.5zM358.4 184.5h-15.2v31.2h15.2v-31.2zM383 199.9c4.5 0 7.9-3.5 7.8-8.1-.1-4.4-3.4-7.6-7.7-7.6-4.6-.1-8 3.3-8 7.8-.1 4.5 3.4 8 7.9 7.9zM318.8 199.9c4.5.1 8-3.3 8-7.8 0-4.6-3.4-7.9-7.9-7.9-4.4 0-7.7 3.3-7.8 7.6-.2 4.5 3.2 8 7.7 8.1z"/></svg>
