<svg xmlns="http://www.w3.org/2000/svg" xml:space="preserve" viewBox="0 0 512 512"><path fill="#004EE4" d="M376.7 151.5h63.4v25h-63.4zM376.7 263.5h63.4v25h-63.4zM208.1 103.6h79.6v47.3h-79.6zM112 103.6h79.6v47.3H112z"/><path d="M488.1 87.5H95.6v161.6c0 1.4-.1 3.1-.7 4.3-8.2 15.3-13.3 31.4-15 48.7V7.5h424.2V375H301.7c2.5-4.9 4.7-9.7 7.4-14.2.6-1 2.8-1.4 4.3-1.4 8.5-.1 17-.1 25.5-.1H488c.1-90.7.1-181.1.1-271.8zM95.9 70.9h392.2V23.5H95.9v47.4z"/><path fill="#004EE4" d="M199.9 190.6c-66.7 0-120.7 54-120.7 120.7S133.2 432 199.9 432s120.7-54 120.7-120.7-54-120.7-120.7-120.7zm-.5 209c-48.8-.1-88-39.7-88-88.8.1-48.7 39.8-87.9 88.9-87.8 48.8.1 88.1 39.7 88 88.7-.1 48.7-39.8 88-88.9 87.9z"/><path d="M200.4 223c-49.1-.1-88.8 39.1-88.9 87.8-.1 49 39.2 88.7 88 88.8 49.1.1 88.8-39.1 88.9-87.8 0-49.1-39.3-88.7-88-88.8zm-1.1 160.3c-39.5-.2-71.7-32.7-71.5-72.4.1-39.7 32.8-71.9 72.7-71.7 39.5.2 71.7 32.7 71.5 72.4-.1 39.7-32.8 71.9-72.7 71.7zM472.2 135.6V231H344.6v-95.4h127.6zm-111.7 79.3h95.6v-63.4h-95.6v63.4zM344.6 247.5h127.6v95.4H344.6v-95.4zm16 16v63.4h95.6v-63.4h-95.6zM95.6 370.8c3.1 4.7 5.9 8.8 9 13.3-6.1 5.2-12.1 10.4-18.1 15.6l-54 46.2c-7 6-10.3 13.5-8.4 22.7 1.8 9.1 7.4 15.2 16.4 17.8 9.2 2.7 17.3.2 23.6-6.8 9.8-10.9 19.2-22.2 28.8-33.3 11.3-13.1 22.6-26.3 34.1-39.7 4.4 2.9 8.7 5.7 13.4 8.9-4.8 5.5-9.3 10.8-13.8 16.1-16.5 19.1-32.9 38.4-49.6 57.5-11 12.5-24.9 17.3-41 12.6-15.9-4.6-25.4-15.7-27.9-32-2.1-13 1.7-24.9 11.6-33.6 24.8-21.9 50.1-43.3 75.9-65.3zM112.1 103.3h79.3v15.9h-79.3v-15.9zM208.1 119.2v-15.6h79.7v15.6h-79.7zM111.9 150.9v-15.6h79.7v15.6h-79.7zM208.3 135.2h79.4v15.6h-79.4v-15.6z"/><path d="M87.6 412.6c3.3-3.2 6.8-6.6 10.6-10.3 3.2 3.6 6.6 7.4 10.1 11.3-3.2 2.9-6.9 6.3-10.9 10-2.8-3.3-6.2-7.1-9.8-11zM408.2 103.6v15.3h-15.6v-15.3h15.6zM424.6 103.5H440V119h-15.4v-15.5zM472.1 119.1h-15.3v-15.6h15.3v15.6zM76 425.2c3.1 3.2 6.5 6.8 9.7 10.2-3.4 3.4-6.9 7-10.5 10.6-3.1-3.4-6.6-7-10.2-10.9 3.2-2.9 7-6.3 11-9.9zM52.7 468.3c-3.1-3.3-6.6-6.8-10.4-10.8 3.5-2.8 7.2-5.8 11.2-9 2.3 2.7 5.7 6.6 8.9 10.4-2.5 2.4-6 5.8-9.7 9.4zM127.6 39.6v15.3H112V39.6h15.6zM144 39.4h15.4v15.5H144V39.4zM176 54.8V39.6h15.6v15.2H176zM199.7 351.5v15.4c-25.6 1.6-55.7-21.2-55.7-55.1h15.6c.7 10.5 4.2 20.2 12 27.9 7.7 7.5 17.1 11.1 28.1 11.8z"/></svg>