<svg xmlns="http://www.w3.org/2000/svg" xml:space="preserve" viewBox="0 0 512 512"><path fill="#1464ff" d="M472 184H328V88h144v96zM472 280H328v-72h144v72zM40 184h256v96H40zM152 376H40v-80h112v80zM280 376H168v-80h112v80z"/><path d="M464 8H336c-22.1 0-40 17.9-40 40v104H48c-22.1 0-40 17.9-40 40v224c0 22.1 17.9 40 40 40h104v32h-32v16h208v-16h-32v-32h104c22.1 0 40-17.9 40-40v-40h24c22.1 0 40-17.9 40-40V48c0-22.1-17.9-40-40-40zM336 24h128c13.2 0 24 10.8 24 24v8H312v-8c0-13.2 10.8-24 24-24zm152 48v224H312V72h176zM280 488H168v-32h112v32zm120-48H48c-13.2 0-24-10.8-24-24v-8h400v8c0 13.2-10.8 24-24 24zm24-48H24V192c0-13.2 10.8-24 24-24h248v168c0 22.1 17.9 40 40 40h88v16zm40-32H336c-13.2 0-24-10.8-24-24v-24h176v24c0 13.2-10.8 24-24 24z"/><path d="M376 328h48v16h-48zM456 264h16v16h-16zM328 264h112v16H328zM328 232h144v16H328zM328 200h144v16H328zM168 296h112v16H168zM168 328h112v16H168zM168 360h80v16h-80zM264 360h16v16h-16z"/></svg>