<svg xmlns="http://www.w3.org/2000/svg" xml:space="preserve" viewBox="0 0 512 512"><path fill="#1464ff" d="M144 296c0-34.8 14.9-66.1 38.6-88H40v112h104l1.9-3.3c-1.2-6.8-1.9-13.6-1.9-20.7zM40 144h128v48H40v-48zM408 160h48v136h-48V160zM344 208h48v88h-48v-88zM280 160h48v136h-48V160z"/><path d="M96 416h80v16H96v-16zM40 144h16v16H40v-16zM72 144h16v16H72v-16zM104 144h16v16h-16v-16zM136 144h96v16h-96v-16zM40 176h96v16H40v-16zM152 176h16v16h-16v-16z"/><path d="M436.9 425.6C480.2 379.4 504 319.5 504 256c0-65.5-25.6-125.1-67.2-169.5l16.9-16.9c3.1 1.5 6.6 2.4 10.3 2.4 13.2 0 24-10.8 24-24s-10.8-24-24-24-24 10.8-24 24c0 3.7.9 7.2 2.4 10.3l-16.9 16.9C381.1 33.6 321.5 8 256 8c-48.2 0-94.8 13.9-135 40H40C22.4 48 8 62.4 8 80v352c0 17.6 14.4 32 32 32h80.9c40.2 26.2 86.9 40 135.1 40 47.6 0 93.7-13.6 133.6-39.1l30.2 30.2c5.8 5.8 13.5 9 21.7 9 16.9 0 30.6-13.7 30.6-30.6 0-8.2-3.2-15.9-9-21.7l-26.2-26.2zM464 40c4.4 0 8 3.6 8 8s-3.6 8-8 8-8-3.6-8-8 3.6-8 8-8zM256 24c61.1 0 116.7 23.8 158.2 62.5l-19.9 19.9c-3.1-1.5-6.6-2.4-10.3-2.4-5.2 0-10 1.7-13.9 4.5L327 78.4c.6-2 1-4.1 1-6.4 0-13.2-10.8-24-24-24s-24 10.8-24 24 10.8 24 24 24c5.2 0 10-1.7 13.9-4.5l43.1 30.1c-.6 2-1 4.1-1 6.4 0 13.2 10.8 24 24 24s24-10.8 24-24c0-3.7-.9-7.2-2.4-10.3l19.9-19.9C464.2 139.3 488 194.9 488 256c0 59.2-22.2 115.1-62.4 158.2l-52.2-52.1c10.4-17.2 16.9-36.9 18.2-58.1H472v-16H264v16h79.6c-4 40.4-38.2 72-79.6 72-44.1 0-80-35.9-80-80s35.9-80 80-80c5.4 0 10.7.7 16 1.8v-16.4c-5.3-.9-10.6-1.4-16-1.4-52.9 0-96 43.1-96 96s43.1 96 96 96c50.2 0 91.5-38.8 95.6-88h16c-4.1 58-52.5 104-111.6 104-61.8 0-112-50.2-112-112s50.2-112 112-112c5.4 0 10.7.5 16 1.3v-16.2c-5.3-.7-10.6-1.1-16-1.1V80c0-17.6-14.4-32-32-32h-78.6c31.7-15.7 66.7-24 102.6-24zm136 104c0 4.4-3.6 8-8 8s-8-3.6-8-8 3.6-8 8-8 8 3.6 8 8zm-80-56c0 4.4-3.6 8-8 8s-8-3.6-8-8 3.6-8 8-8 8 3.6 8 8zM24 80c0-8.8 7.2-16 16-16h192c8.8 0 16 7.2 16 16v32H24V80zm0 48h224v41.1C185 177 136 230.8 136 296c0 14 2.3 27.4 6.5 40H40v16h109.1c5.8 11.8 13.3 22.6 22.2 32H24V128zm16 320c-8.8 0-16-7.2-16-16v-32h165.7c16.9 12.1 36.8 20.2 58.3 22.9v9.1c0 8.8-7.2 16-16 16H40zm216 40c-35.9 0-70.8-8.3-102.6-24H232c17.6 0 32-14.4 32-32v-8c24.2 0 46.8-6.9 66.1-18.6l47.8 47.8C341.3 475.9 299.4 488 256 488zm185.4 0c-3.9 0-7.6-1.5-10.3-4.3l-87.6-87.6c7.7-6.1 14.6-13 20.7-20.7l87.6 87.6c2.8 2.8 4.3 6.4 4.3 10.3-.1 8.1-6.7 14.7-14.7 14.7z"/></svg>
