<svg xmlns="http://www.w3.org/2000/svg" xml:space="preserve" viewBox="0 0 512 512"><path fill="#1464ff" d="M201.7 84.2H51.4V234h106.7v-42.8h43.6z"/><path d="M51.4 105.1v-21h150.3v21H51.4zM51.7 126.8h150.1v21.4H51.7v-21.4zM51.3 191.3v-21h150.3v21H51.3zM439.6 169.6v-20.7h20.8v20.7h-20.8zM439.6 212.8V192h20.9v20.8h-20.9zM51.7 213.1h20.9v21.1H51.7v-21.1zM115.7 234.5H94.5v-21.1h21.2v21.1zM137.3 234.3v-21h21.1v21h-21.1zM439.6 255.9v-20.7h20.9v20.7h-20.9zM353.4 342.1v-20.7h20.8v20.7h-20.8zM417.5 321.3V342h-20.8v-20.7h20.8zM460.6 321.3V342h-20.9v-20.7h20.9z"/><path fill="#1464ff" d="M417.5 105.1c-40.3-1.3-59.4 21.7-59.4 21.7l-75 69.1c.3.1.7.2 1 .3-5.2 4.9-10.1 9.9-15.4 14.3-.9.8-2.1 1.4-3.4 1.8l-25.9 23.9c2.6-.6 5.3-1 7.9-1.3 26.8-2.9 47.5 5.2 62.8 22.2l14.7-15.6-.3-.3c5-5.3 9.6-10.2 14.6-15.5l.3.3 59-62.6s23.7-22.5 19.1-58.3z"/><path d="M445.5 40.6H66.1C30.6 40.6 8 63.1 8 98.6v230.7c0 33.2 23.2 56.3 56.4 56.3 32.6.1 65.1 0 97.7 0h7.1v21.3c-46.8-3.8-69.3 34.4-63.3 64.4h300.8c1.4-16-1.2-30.5-11-43.1-13.5-17.4-32.1-22.5-53.2-21.1v-21.6h103.8c34.9 0 57.4-22.6 57.6-57.5V98.3c-.2-35.6-22.6-57.7-58.4-57.7zm-415.9 251V98.2c0-23 13-36.1 35.8-36.1h381.3c22.5 0 35.7 13.1 35.8 35.4V277.8h-10c-31.9 0-63.8-.1-95.7.1-5.3 0-7.3-1.7-8.9-6.5-5.6-17.2-15.1-32.1-28.5-45.4l-14.6 15.5c9.8 10.7 17.8 22.1 22.6 36.8-9.5-3.1-13.7 3.5-18.9 8.9-4.9-11.8-11-21.9-18.4-30-15.3-16.9-36-25.1-62.8-22.2-2.7.3-5.3.7-7.9 1.3-26.4 5.6-50.4 25.1-58.2 62.7h-21.1c1.2-15.8 6.6-29.9 15.4-42.5 20.7-29.6 49.2-44.2 85.5-43.3 1.4 0 2.9-.3 4.3-.8l17.8-16.5c-49.8-17.6-135.6 16.6-145.5 102.9h-108v-7.2zm278.5 7.6H203.8c2.6-21.9 23.6-40.4 47.3-42.7 1.6-.2 3.2-.2 4.8-.2 14.9 0 29.2 6.6 39.1 16.8 7.2 7.3 12 16.3 13.1 26.1zm43.5 129.6c13.5 0 23.7 5.8 30.2 17.7.5.9.7 2 1.2 3.5H129.7c2.7-11.9 15.2-21.1 29.3-21.2 19.1-.2 38.2 0 57.2 0h135.4zm-159.7-22v-21h128.3v21H191.9zm289.9-70.1c-1.7 16.2-15.7 27.3-32.5 27.3-34.6.1-69.2 0-103.8 0-92.3 0-184.6-.5-276.9.3-23.6.3-42.5-14-38.6-43.3h8.3c93.4 0 186.9 0 280.3.1 4.6 0 8.4-.7 11.1-4.6 10-14.3 23.5-18.2 40.9-17.5 34.5 1.4 69.2.4 103.7.4h7.7c.1 12.8 1.1 25.2-.2 37.3z"/><path d="m324.5 241.3.3.3 14.6-15.5-.3-.3c-4.9 5.3-9.6 10.2-14.6 15.5zM284.1 196.3c-.3-.1-.7-.2-1-.3l-17.8 16.5c1.3-.5 2.5-1.1 3.4-1.8 5.3-4.5 10.1-9.5 15.4-14.4z"/></svg>