<svg xmlns="http://www.w3.org/2000/svg" xml:space="preserve" viewBox="0 0 512 512"><path fill="#004EE4" d="M199.2 103.9h208.9v63.9H199.2zM39.7 103.9H184v47.9H39.7zM103.3 360.3h112.4v111.5H103.3zM104.2 264h112v79.8h-112z"/><path d="M503.5 167.8V504H72.3V343.9H8.5V8h431.2v176.3H88.8v47.3h398.3V184h-31.3v-16.2h47.7zM24.9 88.3v239.6h63.6v159.6h398.8V248.3h-399v63.4H72.6v-144h350.6V88.3H24.9zm-.1-16.7h398.4V24.4H24.8v47.2z"/><path d="M104.5 200.2h15.4v15.6h-15.4v-15.6zM136.5 200.1h15.4v15.6h-15.4v-15.6zM183.9 215.8h-15.5v-15.6h15.5v15.6zM216.2 312.1V296c6.4 0 12.7-.2 18.9.2 1.3.1 2.7 2 3.5 3.4 8.3 13.1 16.4 26.2 24.6 39.4.9 1.5 1.9 2.9 3.4 5.1 1.5-4.4 2.6-8.2 4-11.8 15.2-41.3 54.6-69 98.9-68.1 50.3 1 88 36.2 98.7 77.6 14.9 57.6-21.4 116.5-79.4 128.2-57.7 11.7-114.1-27.1-122.8-85.2-1.7-11.1-5.3-20.5-11.3-29.6-8.2-12.4-16-25-23.5-37.8-2.4-4-4.9-6-9.5-5.2-1.7.1-3.3-.1-5.5-.1zm207.4 55.8c-.1-31-25.1-55.9-56-55.8-30.9.1-55.7 25.2-55.5 56.3.2 30.8 25 55.5 55.8 55.5 30.8 0 55.8-25.1 55.7-56zm.6-44.8c20.8 30.2 20.6 60.2.7 88.9 3.8 4 7.3 7.7 10.7 11.4 29-33.7 24-85-.8-110.9l-10.6 10.6zm-11.8 101.7c-29.9 20.6-59.7 20.4-89.3-.1-3.7 3.6-7.3 7.2-11 10.8 30.1 27 80.6 27.4 111.3.1-3.6-3.6-7.3-7.2-11-10.8zm10.9-124.3c-29.8-27.2-81.4-27.1-111.4.4 2.9 2.8 5.7 5.6 8.6 8.4.8.8 1.7 1.4 2.5 2.1 25.5-19.4 60.6-21.6 89.6-.1 3.5-3.6 7.1-7.2 10.7-10.8zm-122.9 11.9c-27.6 30.6-26.6 82.3 0 111.1l10.9-10.6c-20.6-30-20.6-59.9 0-89.8-3.6-3.6-7.3-7.2-10.9-10.7zM184 136.1v16.3H39.7v-16.3H184zM103.3 376v-15.8h112.5V376H103.3zM39.8 40.2h15.4v15.4H39.8V40.2zM103.5 40.2H119v15.5h-15.5V40.2zM39.7 103.9h16.4v16.4H39.7zM71.6 103.9h112.3v16.4H71.6zM70.6 40.2H87v16.4H70.6zM135.7 296H184v16h-48.3zM103.3 391.8h16.1v16.1h-16.1zM135.6 391.8h80.1v16.1h-80.1zM103.3 423.7h112.5v16.1H103.3zM103.3 455.6h80.6v16.1h-80.6zM199.6 455.6h16.1v16.1h-16.1z"/></svg>