<svg xmlns="http://www.w3.org/2000/svg" xml:space="preserve" viewBox="0 0 512 512"><path fill="#1464ff" d="M392.3 296.3h79.5v79.5h-79.5zM40.2 296.4h79.6v79.5H40.2z"/><circle cx="256.3" cy="176" r="167.9" fill="#1464ff"/><path d="M360.2 456.1V488h31.4v15.8H120.2v-15.5h31.5v-32.2h-5.1c-32.3 0-64.7.1-97 0-19.9-.1-34.9-11.2-40.1-29.8-1.1-4.1-1.5-8.5-1.5-12.8v-235c0-25.3 17.1-42.3 42.3-42.4 14.1-.1 28.3 0 42.7 0-1 5.5-2 10.5-3 16H50c-6.2 0-11.9 1.3-16.8 5.2-6.6 5.3-9.3 12.3-9.3 20.6.1 26.7 0 53.3 0 80v133.8h464V179.5c0-18-9.5-27.4-27.4-27.5h-38.6c-1-5.3-2-10.4-3-16H461c26 .1 42.9 16.9 43 42.8v235c0 20.4-10.9 35.4-29.7 40.6-4.3 1.2-8.9 1.5-13.3 1.6-31.7.1-63.3.1-95 .1h-5.8zm128-47.6H24.3c-2.8 20.4 10 31.9 28.7 31.9 135.3-.4 270.6-.2 405.9-.2 2.3 0 4.7.1 7-.2 10.6-1 19.2-8.3 21.3-18.8.9-4 .7-8.2 1-12.7zm-144.4 48H168.4v31.4h175.4v-31.4z"/><path d="M114.6 172.8c29.7-23.8 58.7-47 88.4-70.7 3.4 4.3 6.7 8.3 10.5 13-23.9 19.2-47.7 38.2-72.1 57.7 24.1 19.3 48 38.4 72.1 57.7-3.5 4.4-6.7 8.4-10.4 13-29.4-23.5-58.6-46.8-88.5-70.7zM298.5 115.1c3.5-4.4 6.7-8.4 10.4-13 29.5 23.6 58.6 46.9 88.4 70.7-29.5 23.6-58.6 46.9-88.4 70.7-3.4-4.3-6.7-8.3-10.4-13 24-19.3 47.9-38.3 72.1-57.7-24.2-19.4-47.9-38.4-72.1-57.7zM219.7 253.7c19-55.8 37.8-111.1 56.8-167.2 5.2 1.7 10.2 3.4 15.8 5.3-19 55.8-37.8 111.2-56.8 167.2-5.4-1.8-10.4-3.4-15.8-5.3zM40.2 312v-15.6h79.5V312H40.2zM471.8 296.5V312h-79.5v-15.5h79.5zM119.8 328.3v15.8H40.3v-15.8h79.5zM392.4 328.1h79.3V344h-79.3v-15.9zM119.7 375.9H40.2v-15.7h79.5v15.7zM471.8 360.3v15.5h-79.5v-15.5h79.5z"/></svg>