<svg xmlns="http://www.w3.org/2000/svg" xml:space="preserve" viewBox="0 0 360 265" role="img"><title>Clear Choice Glass</title><path d="M2.7 186c1.8-3 4.2-5.4 7.2-7.1 3-1.7 6.4-2.5 10-2.5 4.1 0 7.8 1 11 3.1 3.2 2 5.6 4.9 7 8.6h-7.7c-1-2.1-2.4-3.6-4.2-4.6-1.8-1-3.9-1.5-6.2-1.5-2.6 0-4.9.6-6.9 1.7-2 1.2-3.6 2.8-4.7 5s-1.7 4.7-1.7 7.6.6 5.4 1.7 7.6c1.1 2.2 2.7 3.8 4.7 5s4.3 1.8 6.9 1.8c2.3 0 4.4-.5 6.2-1.5s3.2-2.5 4.2-4.6h7.7c-1.4 3.7-3.8 6.6-7 8.6s-6.9 3-11 3c-3.7 0-7-.9-10-2.5s-5.4-4.1-7.2-7.1c-1.8-3-2.7-6.4-2.7-10.2s.9-7.3 2.7-10.4zM51.7 174.4v41.4h-6.4v-41.4h6.4zM88.1 202.8H64.5c.2 2.5 1.1 4.4 2.7 5.9s3.6 2.2 6 2.2c3.4 0 5.9-1.4 7.3-4.3h6.9c-.9 2.8-2.6 5.2-5.1 7s-5.5 2.7-9.1 2.7c-2.9 0-5.6-.7-7.9-2s-4.1-3.2-5.5-5.6c-1.3-2.4-2-5.2-2-8.4s.6-6 1.9-8.4c1.3-2.4 3.1-4.3 5.4-5.6 2.3-1.3 5-2 8-2s5.5.6 7.8 1.9c2.3 1.3 4 3.1 5.3 5.3s1.9 4.9 1.9 7.9c.2 1.4.1 2.5 0 3.4zm-6.5-5.2c0-2.4-.9-4.2-2.5-5.7-1.6-1.4-3.7-2.1-6.1-2.1-2.2 0-4.1.7-5.6 2.1-1.6 1.4-2.5 3.3-2.8 5.7h17zM94.3 192c1.3-2.4 3-4.2 5.2-5.6 2.2-1.3 4.7-2 7.4-2 2.4 0 4.5.5 6.3 1.4s3.2 2.1 4.3 3.6V185h6.4v30.8h-6.4v-4.6c-1.1 1.5-2.6 2.7-4.4 3.6s-4 1.5-6.4 1.5c-2.6 0-5.1-.7-7.3-2-2.2-1.4-3.9-3.3-5.2-5.7s-1.9-5.2-1.9-8.3.8-5.9 2-8.3zm22 2.8c-.9-1.6-2-2.8-3.4-3.6-1.4-.8-2.9-1.2-4.6-1.2s-3.2.4-4.6 1.2c-1.4.8-2.6 2-3.4 3.5-.9 1.6-1.3 3.4-1.3 5.5s.4 4 1.3 5.6c.9 1.6 2 2.8 3.5 3.7s2.9 1.3 4.6 1.3 3.2-.4 4.6-1.2c1.4-.8 2.6-2 3.4-3.6.9-1.6 1.3-3.4 1.3-5.6s-.5-4-1.4-5.6zM142.5 185.8c1.6-.9 3.4-1.3 5.5-1.3v6.6h-1.6c-2.5 0-4.4.6-5.7 1.9s-1.9 3.5-1.9 6.6v16.2h-6.4V185h6.4v4.5c.9-1.6 2.2-2.8 3.7-3.7zM168.9 186c1.8-3 4.2-5.4 7.2-7.1 3-1.7 6.4-2.5 10-2.5 4.1 0 7.8 1 11 3.1 3.2 2 5.6 4.9 7 8.6h-7.6c-1-2.1-2.4-3.6-4.2-4.6-1.8-1-3.9-1.5-6.2-1.5-2.6 0-4.9.6-6.9 1.7-2 1.2-3.6 2.8-4.7 5s-1.7 4.7-1.7 7.6.6 5.4 1.7 7.6c1.1 2.2 2.7 3.8 4.7 5s4.3 1.8 6.9 1.8c2.4 0 4.4-.5 6.2-1.5s3.2-2.5 4.2-4.6h7.6c-1.5 3.7-3.8 6.6-7 8.6s-6.9 3-11 3c-3.6 0-7-.9-10-2.5s-5.4-4.1-7.2-7.1c-1.8-3-2.6-6.4-2.6-10.2s.9-7.3 2.6-10.4zM233.8 186c1.8 1 3.3 2.5 4.4 4.5 1.1 2 1.6 4.4 1.6 7.2v18.2h-6.3v-17.2c0-2.8-.7-4.9-2.1-6.4-1.4-1.5-3.3-2.2-5.6-2.2s-4.3.7-5.7 2.2c-1.4 1.5-2.1 3.6-2.1 6.4v17.2h-6.4v-41.4h6.4v14.2c1.1-1.3 2.5-2.3 4.1-3 1.7-.7 3.5-1.1 5.5-1.1 2.3-.1 4.4.4 6.2 1.4zM253.3 214.3c-2.4-1.3-4.2-3.2-5.5-5.6s-2-5.2-2-8.4.7-5.9 2.1-8.3c1.4-2.4 3.3-4.3 5.6-5.6 2.4-1.3 5-2 8-2s5.6.7 8 2c2.4 1.3 4.3 3.2 5.6 5.6 1.4 2.4 2.1 5.2 2.1 8.3s-.7 5.9-2.1 8.3c-1.4 2.4-3.3 4.3-5.8 5.6-2.4 1.3-5.1 2-8.1 2s-5.5-.5-7.9-1.9zm12.5-4.7c1.4-.8 2.6-2 3.5-3.5.9-1.6 1.3-3.5 1.3-5.7s-.4-4.1-1.3-5.7c-.9-1.6-2-2.7-3.4-3.5s-2.9-1.2-4.6-1.2-3.2.4-4.5 1.2c-1.4.8-2.5 2-3.3 3.5-.8 1.6-1.2 3.4-1.2 5.7 0 3.3.9 5.9 2.5 7.7 1.7 1.8 3.8 2.7 6.4 2.7 1.7 0 3.2-.4 4.6-1.2zM283.8 179.7c-.8-.8-1.2-1.8-1.2-2.9s.4-2.1 1.2-2.9c.8-.8 1.8-1.2 2.9-1.2s2.1.4 2.9 1.2c.8.8 1.2 1.8 1.2 2.9s-.4 2.1-1.2 2.9c-.8.8-1.7 1.2-2.9 1.2s-2.1-.4-2.9-1.2zm6.1 5.3v30.8h-6.4V185h6.4zM298.1 192c1.3-2.4 3.1-4.3 5.3-5.6 2.3-1.3 4.9-2 7.8-2 3.7 0 6.8.9 9.2 2.7 2.4 1.8 4.1 4.3 4.9 7.6h-6.9c-.6-1.5-1.5-2.7-2.7-3.6-1.2-.9-2.8-1.3-4.6-1.3-2.6 0-4.7.9-6.2 2.8-1.5 1.8-2.3 4.4-2.3 7.8s.8 5.9 2.3 7.8c1.5 1.9 3.6 2.8 6.2 2.8 3.7 0 6.1-1.6 7.3-4.9h6.9c-.9 3.1-2.6 5.6-5 7.5s-5.5 2.8-9.2 2.8c-2.9 0-5.5-.7-7.8-2s-4-3.2-5.3-5.6c-1.3-2.4-1.9-5.2-1.9-8.4s.7-6 2-8.4zM359.8 202.8h-23.5c.2 2.5 1.1 4.4 2.7 5.9s3.6 2.2 6 2.2c3.4 0 5.9-1.4 7.3-4.3h6.9c-.9 2.8-2.6 5.2-5.1 7s-5.5 2.7-9.1 2.7c-2.9 0-5.6-.7-7.9-2-2.3-1.3-4.1-3.2-5.5-5.6-1.3-2.4-2-5.2-2-8.4s.6-6 1.9-8.4c1.3-2.4 3.1-4.3 5.4-5.6 2.3-1.3 5-2 8-2s5.5.6 7.8 1.9c2.3 1.3 4 3.1 5.3 5.3s1.9 4.9 1.9 7.9c.1 1.4 0 2.5-.1 3.4zm-6.4-5.2c0-2.4-.9-4.2-2.5-5.7-1.6-1.4-3.7-2.1-6.1-2.1-2.2 0-4.1.7-5.6 2.1-1.6 1.4-2.5 3.3-2.8 5.7h17zM108.4 249c-.6-1.3-1.5-2.3-2.7-3-1.2-.7-2.5-1.1-4.1-1.1s-2.9.4-4.2 1.1c-1.2.7-2.2 1.7-2.9 3.1-.7 1.3-1.1 2.9-1.1 4.6s.4 3.3 1.1 4.6c.7 1.3 1.7 2.3 2.9 3.1 1.2.7 2.6 1.1 4.2 1.1 2.2 0 4-.7 5.4-2 1.4-1.3 2.2-3.1 2.5-5.3h-8.9v-2.4h12v2.2c-.2 1.8-.7 3.5-1.7 5s-2.3 2.7-3.9 3.6c-1.6.9-3.4 1.3-5.3 1.3-2.1 0-3.9-.5-5.6-1.5-1.7-1-3.1-2.3-4-4-1-1.7-1.5-3.7-1.5-5.9s.5-4.1 1.5-5.9c1-1.7 2.3-3.1 4-4.1 1.7-1 3.6-1.5 5.6-1.5 2.4 0 4.4.6 6.3 1.8 1.8 1.2 3.1 2.8 4 4.9l-3.6.3zM140.4 262.4h7.8v2.4h-10.7v-22.3h2.9v19.9zM185.4 259.8h-9.7l-1.8 4.9h-3.1l8-22.2h3.4l8 22.2h-3.1l-1.7-4.9zm-.8-2.3-4-11.3-4 11.3h8zM217.9 264.2c-1.2-.5-2.1-1.2-2.7-2.2s-1-2-1-3.2h3.1c.1 1 .5 1.9 1.3 2.6s1.9 1.1 3.3 1.1 2.5-.4 3.3-1 1.2-1.6 1.2-2.7c0-.9-.2-1.5-.7-2.1-.5-.5-1-.9-1.8-1.2-.7-.3-1.6-.6-2.8-.9-1.5-.4-2.6-.8-3.5-1.2-.9-.4-1.6-1-2.3-1.8-.6-.8-.9-1.9-.9-3.3 0-1.2.3-2.3.9-3.2.6-.9 1.5-1.7 2.6-2.2 1.1-.5 2.4-.8 3.8-.8 2.1 0 3.8.5 5.1 1.6 1.3 1 2.1 2.4 2.2 4.2h-3.2c-.1-.9-.5-1.6-1.3-2.3-.8-.7-1.8-1-3.1-1-1.2 0-2.2.3-3 .9-.8.6-1.1 1.5-1.1 2.6 0 .8.2 1.5.7 2s1 .9 1.7 1.2c.7.3 1.6.6 2.8.9 1.5.4 2.6.8 3.5 1.2.9.4 1.7 1 2.3 1.8.6.8 1 1.9 1 3.3 0 1.1-.3 2.1-.9 3.1-.6 1-1.4 1.7-2.5 2.3s-2.5.9-4 .9-2.8-.1-4-.6zM257.7 264.2c-1.2-.5-2.1-1.2-2.7-2.2s-1-2-1-3.2h3.1c.1 1 .5 1.9 1.3 2.6s1.9 1.1 3.3 1.1 2.5-.4 3.3-1 1.2-1.6 1.2-2.7c0-.9-.2-1.5-.7-2.1-.5-.5-1-.9-1.8-1.2-.7-.3-1.6-.6-2.8-.9-1.5-.4-2.6-.8-3.5-1.2-.9-.4-1.6-1-2.3-1.8-.6-.8-.9-1.9-.9-3.3 0-1.2.3-2.3.9-3.2.6-.9 1.5-1.7 2.6-2.2 1.1-.5 2.4-.8 3.8-.8 2.1 0 3.8.5 5.1 1.6 1.3 1 2.1 2.4 2.2 4.2h-3.2c-.1-.9-.5-1.6-1.3-2.3-.8-.7-1.8-1-3.1-1-1.2 0-2.2.3-3 .9-.8.6-1.1 1.5-1.1 2.6 0 .8.2 1.5.7 2s1 .9 1.7 1.2c.7.3 1.6.6 2.8.9 1.5.4 2.6.8 3.5 1.2.9.4 1.7 1 2.3 1.8.6.8 1 1.9 1 3.3 0 1.1-.3 2.1-.9 3.1-.6 1-1.4 1.7-2.5 2.3s-2.5.9-4 .9-2.8-.1-4-.6zM222.9 65.3 249.8 78c-4.4-13.6-7.9-21.5-13.2-34.8l-13.7 22.1zM134 44.7 152.9 55l4.9-6.5-14-26.8zM215.1 0H187l-3.5 18.9 25.8-4.6c2-4.7 4.1-9.5 5.8-14.3zM152.3 128.9l-7 12.2h30l-1.9-21.2zM150 67.1l1.7-8.6-23.6-12.1 6.2 19.5zM234.7 31 217.5 4.2 205.3 30zM124.9 109.1l18.4 32 9-27.4zM122.1 38.1l-11.9-3.6v26.4l21.5 8.4zM224 97.2l-18.1-7.4-5.8 6.4 17.5 29.3zM131.7 71.1l-21.5-7.5 11.9 33.3zM182.8 0h-37.3l33.3 21.7zM236.1 98.7l13.7 6.1v-25l-21.6.9zM160.9 96.5l-5.6-4.6-26 15 26.6 3.2zM205 33.4 200.9 45l4.2 5.6 24.4-15.3zM132.9 40.8l8.3-25.1-21.9 16.5zM223.1 120.8l26.7-14.3-22.5-5.6zM172.2 116.8l-2.4-15.4-7.3-3.7-10.2 26.5zM187.3 119.7l-8.7 21.4 34.7-13.8zM214.6 125.5l-16.5-28.1-6.1 3.9 5.8 18.9zM146 19.2l13.5 27.1 6.8-5.5-10.9-23.1zM194.4 20.6 192 39.4l5.7 3.3 9.8-25.6zM225.7 80.7l-15.8-1.3-3.5 8.6 26.8 9.7zM144.5 94.4l-11-16.9-8.6 27.8zM110.2 0v31.8l16.4-11zM110.2 141.1h31.3l-10-13.5zM249.8 137.8v-29.2l-16 9.9zM248.4 0h-29.3l8.8 14.6zM110.2 69.7v39.6l11.4-1.4zM218.8 69.5l-6.1 8.2 32.4.8zM215.2 70.4l-7.7-6.1h-8.8l9.9 11.7zM249.8 68.5V40.4l-11.7-2.9zM214.9 47.5l5.3 14.7 14.3-25.6zM129.6 18.3l11.9-5.9-21-4.9zM130.8 123.5l-7.7-10-10 22.6zM248.1 4.2l-18.4 13.6 7 10.9zM154.3 88.2l-3.4-7.6-13-4 7.6 17zM237.3 32.8l12.5 5.6V13.1zM177.9 38.7h9.5l3.5-17.1-15.6 3.2zM183.6 141.1h34l-1.2-12.1zM205.5 77.6l-9.6-12.3-12.4 5.8 8.9 7.4zM219.6 127l27.2 11.1-15.2-18.4zM159.5 18.9l9.5 21.3 5.6-1.8-2.3-13.9zM174.4 108.8l2.9 28.8 7.8-17.8zM206.1 52.2l3.9 11.3 5.1 2.7-1.4-15.7zM165.3 17.2l-22-15.3 1.3 10.2zM140.4 0h-24.6l22.9 8.8zM110.2 110.6v24.7l9.7-22.8zM219.9 141.1h24.7l-25.8-11.8zM178.8 71.9l-10-6.6.1 11.2 5.4 8.5zM193.1 118.6l-3.3-16.3-5.2.2 3.2 15.6zM181.1 69.2l5.9-2.3-4.1-7.6zM192 79.8l-10.9-7.1-4.2 12.8 7.6.6zM169.2 63.4l10.1 7 .7-15.8-6.6 2.1zM137 71.2l13.6 6.8-.7-8.5zM182.8 102.7l-9-.8 10.1 11.1zM182 54.7l6.8 10 5.1-2.5-5.4-5.5z"/></svg>