<svg xmlns="http://www.w3.org/2000/svg" xml:space="preserve" viewBox="0 0 620.9 186.6"><path fill="#fff" d="M234.5 131.6c4.5 0 8.4 2.4 10.4 6.2l2.7-1.6c-2.6-4.7-7.5-7.9-13.1-7.9-8.4 0-15.1 7-15.1 15.6 0 8.7 6.7 15.7 15.1 15.8 5.7 0 10.5-3.2 13.1-7.9l-2.7-1.6c-2 3.7-5.9 6.2-10.4 6.2-6.7 0-12-5.5-12-12.4s5.4-12.4 12-12.4zM266.6 128.3c-8.4 0-15.1 7-15.1 15.6 0 8.7 6.8 15.7 15.1 15.6 8.4 0 15.1-7 15.1-15.6s-6.8-15.6-15.1-15.6zm-.1 28c-6.7 0-12-5.5-12-12.4s5.4-12.4 12-12.4c6.8 0 12 5.5 12 12.4s-5.2 12.4-12 12.4zM301.5 131.6c4.5 0 8.4 2.4 10.4 6.2l2.7-1.6c-2.6-4.7-7.5-7.9-13.1-7.9-8.4 0-15.1 7-15.1 15.6 0 8.7 6.8 15.7 15.1 15.8 5.7 0 10.5-3.2 13.1-7.9l-2.7-1.6c-2 3.7-5.9 6.2-10.4 6.2-6.7 0-12-5.5-12-12.4s5.4-12.4 12-12.4zM339.1 142.4h-16.2v-13.6h-3.1v30.4h3.1v-13.6h16.2v13.5h3.1v-30.3h-3.1zM349.6 128.7h3.1v30.4h-3.1zM381 153.7l-18.1-25H360v30.4h3.1v-25l18.1 25h2.9v-30.4H381zM398.3 128.7l-10.6 30.4h3.4l2.4-7.1h13.1l2.3 7.1h3.4l-10.6-30.4h-3.4zm-3.6 20.3 5.5-16.4 5.4 16.4h-10.9zM430.4 155.2l-11.3-26.5h-3.3v30.4h3.1v-24l10.2 24h2.6l10.3-23.9v23.9h3.1v-30.4h-3.4zM466.1 128.3c-8.4 0-15.1 7-15.1 15.6 0 8.7 6.7 15.7 15.1 15.6 8.4 0 15.1-7 15.1-15.6s-6.8-15.6-15.1-15.6zm-.2 28c-6.7 0-12-5.5-12-12.4s5.4-12.4 12-12.4c6.8 0 12 5.5 12 12.4s-5.2 12.4-12 12.4zM501 146.2h11.8c-1 5.8-5.9 10.2-11.8 10.2-6.7 0-12-5.5-12-12.4s5.4-12.4 12-12.4c4.5 0 8.4 2.4 10.4 6.2l2.7-1.6c-2.6-4.7-7.5-7.9-13.1-7.9-8.4 0-15.1 7-15.1 15.6s6.8 15.6 15.1 15.6c8.4 0 15.1-7 15.1-15.6v-.7H501v3zM540.9 148.6c0 4.5-3.4 7.7-7.9 7.7s-7.8-3.3-7.8-7.7v-19.8h-3.1v20.4c0 5.9 4.6 10.4 10.8 10.3 6.5 0 11.1-4.4 11.1-10.4v-20.4h-3.1v19.9zM554.2 128.7h-3.1v30.4h14v-3.2h-10.9zM583 128.3c-8.4 0-15.1 7-15.1 15.6 0 8.7 6.8 15.7 15.1 15.6 8.4 0 15.1-7 15.1-15.6s-6.8-15.6-15.1-15.6zm-.1 28c-6.7 0-12-5.5-12-12.4s5.4-12.4 12-12.4c6.8 0 12 5.5 12 12.4s-5.3 12.4-12 12.4zM606.1 136.1c0-3 2.4-4.5 5.1-4.5 2.2 0 4 1 5.2 2.7l2.4-2.1c-1.6-2.1-4.4-3.8-7.8-3.8-4.5 0-8.1 3-8.1 8 0 9.8 14.3 7.3 14.3 14.9 0 3.3-2.5 5.1-5.8 5.1s-5.7-1.9-6.7-4.7l-2.8 1.7c1.5 3.7 5.1 6.2 9.5 6.2 5 0 9-3.1 9-8.4 0-10.4-14.3-7.9-14.3-15.1zM167 53.1l-13.3-19.5-5.2-7.6C137 9.2 118.4.1 99.5 0h-.8C87.1.1 75.5 3.5 65.4 10.4c-4.8 3.3-8.9 7.2-12.4 11.4 11.1-1.1 22.4.6 32.6 5 15.2-6.3 33.3-1.3 43 12.8l7.2 10.6 11.3 16.5 9 13.1c11.1 16.2 6.9 38.5-9.3 49.6-16.2 11.1-38.4 6.9-49.6-9.3L87 105.2 76.6 90l-6.9-10.1c-4.8-7-6.8-15.2-6.1-23.1-7.1-.9-14.5.7-20.9 5-1.1.8-2.2 1.6-3.2 2.5.8 10.1 4.1 20.2 10.3 29.2l7.4 10.8 9.8 14.3 10.4 15.1c18.6 27.2 55.9 34.2 83.1 15.6 27.2-18.6 34.2-55.9 15.6-83.1L167 53.1z"/><path fill="#fff" d="M100.8 159.9c-15.2 6.3-33.3 1.3-43-12.8l-10.2-14.9L37.3 117l-6.9-10.1c-11.1-16.2-6.9-38.5 9.3-49.6 16.2-11.1 38.5-6.9 49.6 9.3l7.2 10.6 11.3 16.5 9 13.1c4.8 7 6.8 15.2 6.1 23.1 7.1.9 14.6-.7 20.9-5 1.1-.8 2.2-1.6 3.2-2.5-.8-10.1-4.1-20.2-10.2-29.2L127.6 80l-13.3-19.5-5.2-7.6C97.5 36 78.8 27 59.7 27 48 27 36.3 30.3 26 37.4 9.2 48.9.1 67.4 0 86.4v.8c.1 11.5 3.5 23.1 10.4 33.3l7.4 10.8 9.8 14.3 10.3 15.1c18.6 27.2 55.9 34.2 83.1 15.6 4.8-3.3 8.9-7.1 12.4-11.4-11.1 1.1-22.4-.6-32.6-5zM406.4 47.8c-3.2-4.5-7.4-8.1-12.6-10.8-5.2-2.8-11.6-4.1-19.1-4.1-6.2 0-11.9 1.1-17 3.3-5.1 2.2-9.5 5.3-13.2 9.1-3.7 3.9-6.6 8.4-8.6 13.6s-3.1 10.9-3.1 17c0 6.7 1 12.8 3.1 18.3 2.3 5.5 5.2 10.2 9 14.2 3.8 3.9 8.4 7 13.8 9.2 5.4 2.2 11.4 3.3 17.9 3.3 6.4 0 12-.7 16.6-2.1 4.6-1.4 8.4-3 11.4-4.7 3-1.8 5.3-3.4 6.9-5l.4-.4-11.4-12.8c-.1.1-.2.2-.4.3-1.3 1.1-3.1 2.2-5.2 3.2s-4.7 1.9-7.6 2.6c-3 .8-6.5 1.1-10.5 1.1-2.7 0-5.4-.5-8.2-1.4-2.8-.9-5.2-2.3-7.4-4-2.2-1.8-3.9-3.9-5.3-6.3-1.4-2.5-2-5.2-2-8.3h61.5v-3c0-5.9-.7-11.6-2.1-17.2-1.4-5.6-3.7-10.7-6.9-15.1zm-52.7 20.4c.1-2.1.6-4.2 1.5-6.3s2.3-4 4-5.7c1.8-1.7 4-3.1 6.6-4.2 2.6-1.1 5.6-1.7 9-1.7 3.2 0 6 .6 8.4 1.7 2.5 1.1 4.5 2.5 6.1 4.2 1.6 1.7 2.8 3.6 3.6 5.7s1.2 4.2 1.2 6.3h-40.4zM511.7 35.7h20.7v82.4h-20.7zM511 .9h22.1v21.8H511zM618.4 50.7c-1.6-3.7-4-6.8-7-9.5-3-2.6-6.7-4.7-11-6.2s-9.1-2.2-14.3-2.2c-4.9 0-9.2.3-12.9 1-3.7.6-6.9 1.5-9.7 2.5s-5.3 2.1-7.4 3.3c-2.1 1.2-4 2.4-5.6 3.6l9.5 14.1c2.7-1.8 5.8-3.4 9.3-4.9s8.2-2.3 14.1-2.3c5.3 0 9.5 1.2 12.8 3.5s4.9 5.6 4.9 9.7v1.9c-2.2-.1-4.4-.2-6.5-.4-1.9-.1-3.8-.2-5.8-.3-2-.1-3.8-.1-5.4-.1-5.4 0-10.3.6-14.8 1.9-4.5 1.3-8.3 3.2-11.4 5.7-3.2 2.5-5.6 5.6-7.4 9.3-1.8 3.7-2.6 7.9-2.6 12.6 0 4.6.9 8.6 2.5 11.9 1.7 3.4 3.9 6.2 6.7 8.3 2.8 2.2 5.8 3.8 9.1 4.8 3.3 1.1 6.7 1.6 10.1 1.6 5.6 0 10.7-1.1 15.3-3.2 4.6-2.1 8-4.5 10.2-7.2l.5 7.7h19.3V62.7c0-4.3-.8-8.3-2.5-12zM601 88.9c0 2.1-.6 4.1-1.7 6-1.1 1.9-2.5 3.5-4.3 4.9-1.8 1.4-3.8 2.5-6.1 3.3s-4.7 1.2-7.1 1.2c-4.9 0-8.6-1-11.2-3-2.5-2-3.8-4.7-3.8-8.3 0-3.4 1.3-6.4 4-9 2.7-2.6 7.4-4 14.1-4 1.3 0 2.8 0 4.7.1 1.8.1 3.5.1 5.2.3 2 .1 4 .2 6.2.4v8.1zM298.1 84.2 241.3.9H219v117.2h21.6V33.8l57.3 84.3h21.8V.9h-21.6zM442.4 118.1 458.9 94l16.6 24.1h23.3l-28.2-41.2 28.2-41.2h-23.3l-16.6 24.1-16.5-24.1h-23.3l28.2 41.2-28.2 41.2z"/></svg>
