<!-- 
<svg xmlns="http://www.w3.org/2000/svg" xml:space="preserve" viewBox="0 0 620.9 186.6"><path d="M234.5 131.6c4.5 0 8.4 2.4 10.4 6.2l2.7-1.6c-2.6-4.7-7.5-7.9-13.1-7.9-8.4 0-15.1 7-15.1 15.6 0 8.7 6.7 15.7 15.1 15.8 5.7 0 10.5-3.2 13.1-7.9l-2.7-1.6c-2 3.7-5.9 6.2-10.4 6.2-6.7 0-12-5.5-12-12.4s5.4-12.4 12-12.4zM266.6 128.3c-8.4 0-15.1 7-15.1 15.6 0 8.7 6.8 15.7 15.1 15.6 8.4 0 15.1-7 15.1-15.6s-6.8-15.6-15.1-15.6zm-.1 28c-6.7 0-12-5.5-12-12.4s5.4-12.4 12-12.4c6.8 0 12 5.5 12 12.4s-5.2 12.4-12 12.4zM301.5 131.6c4.5 0 8.4 2.4 10.4 6.2l2.7-1.6c-2.6-4.7-7.5-7.9-13.1-7.9-8.4 0-15.1 7-15.1 15.6 0 8.7 6.8 15.7 15.1 15.8 5.7 0 10.5-3.2 13.1-7.9l-2.7-1.6c-2 3.7-5.9 6.2-10.4 6.2-6.7 0-12-5.5-12-12.4s5.4-12.4 12-12.4zM339.1 142.4h-16.2v-13.6h-3.1v30.4h3.1v-13.6h16.2v13.5h3.1v-30.3h-3.1zM349.6 128.7h3.1v30.4h-3.1zM381 153.7l-18.1-25H360v30.4h3.1v-25l18.1 25h2.9v-30.4H381zM398.3 128.7l-10.6 30.4h3.4l2.4-7.1h13.1l2.3 7.1h3.4l-10.6-30.4h-3.4zm-3.6 20.3 5.5-16.4 5.4 16.4h-10.9zM430.4 155.2l-11.3-26.5h-3.3v30.4h3.1v-24l10.2 24h2.6l10.3-23.9v23.9h3.1v-30.4h-3.4zM466.1 128.3c-8.4 0-15.1 7-15.1 15.6 0 8.7 6.7 15.7 15.1 15.6 8.4 0 15.1-7 15.1-15.6s-6.8-15.6-15.1-15.6zm-.2 28c-6.7 0-12-5.5-12-12.4s5.4-12.4 12-12.4c6.8 0 12 5.5 12 12.4s-5.2 12.4-12 12.4zM501 146.2h11.8c-1 5.8-5.9 10.2-11.8 10.2-6.7 0-12-5.5-12-12.4s5.4-12.4 12-12.4c4.5 0 8.4 2.4 10.4 6.2l2.7-1.6c-2.6-4.7-7.5-7.9-13.1-7.9-8.4 0-15.1 7-15.1 15.6s6.8 15.6 15.1 15.6c8.4 0 15.1-7 15.1-15.6v-.7H501v3zM540.9 148.6c0 4.5-3.4 7.7-7.9 7.7s-7.8-3.3-7.8-7.7v-19.8h-3.1v20.4c0 5.9 4.6 10.4 10.8 10.3 6.5 0 11.1-4.4 11.1-10.4v-20.4h-3.1v19.9zM554.2 128.7h-3.1v30.4h14v-3.2h-10.9zM583 128.3c-8.4 0-15.1 7-15.1 15.6 0 8.7 6.8 15.7 15.1 15.6 8.4 0 15.1-7 15.1-15.6s-6.8-15.6-15.1-15.6zm-.1 28c-6.7 0-12-5.5-12-12.4s5.4-12.4 12-12.4c6.8 0 12 5.5 12 12.4s-5.3 12.4-12 12.4zM606.1 136.1c0-3 2.4-4.5 5.1-4.5 2.2 0 4 1 5.2 2.7l2.4-2.1c-1.6-2.1-4.4-3.8-7.8-3.8-4.5 0-8.1 3-8.1 8 0 9.8 14.3 7.3 14.3 14.9 0 3.3-2.5 5.1-5.8 5.1s-5.7-1.9-6.7-4.7l-2.8 1.7c1.5 3.7 5.1 6.2 9.5 6.2 5 0 9-3.1 9-8.4 0-10.4-14.3-7.9-14.3-15.1zM167 53.1l-13.3-19.5-5.2-7.6C137 9.2 118.4.1 99.5 0h-.8C87.1.1 75.5 3.5 65.4 10.4c-4.8 3.3-8.9 7.2-12.4 11.4 11.1-1.1 22.4.6 32.6 5 15.2-6.3 33.3-1.3 43 12.8l7.2 10.6 11.3 16.5 9 13.1c11.1 16.2 6.9 38.5-9.3 49.6-16.2 11.1-38.4 6.9-49.6-9.3L87 105.2 76.6 90l-6.9-10.1c-4.8-7-6.8-15.2-6.1-23.1-7.1-.9-14.5.7-20.9 5-1.1.8-2.2 1.6-3.2 2.5.8 10.1 4.1 20.2 10.3 29.2l7.4 10.8 9.8 14.3 10.4 15.1c18.6 27.2 55.9 34.2 83.1 15.6 27.2-18.6 34.2-55.9 15.6-83.1L167 53.1z"/><path d="M100.8 159.9c-15.2 6.3-33.3 1.3-43-12.8l-10.2-14.9L37.3 117l-6.9-10.1c-11.1-16.2-6.9-38.5 9.3-49.6 16.2-11.1 38.5-6.9 49.6 9.3l7.2 10.6 11.3 16.5 9 13.1c4.8 7 6.8 15.2 6.1 23.1 7.1.9 14.6-.7 20.9-5 1.1-.8 2.2-1.6 3.2-2.5-.8-10.1-4.1-20.2-10.2-29.2L127.6 80l-13.3-19.5-5.2-7.6C97.5 36 78.8 27 59.7 27 48 27 36.3 30.3 26 37.4 9.2 48.9.1 67.4 0 86.4v.8c.1 11.5 3.5 23.1 10.4 33.3l7.4 10.8 9.8 14.3 10.3 15.1c18.6 27.2 55.9 34.2 83.1 15.6 4.8-3.3 8.9-7.1 12.4-11.4-11.1 1.1-22.4-.6-32.6-5zM406.4 47.8c-3.2-4.5-7.4-8.1-12.6-10.8-5.2-2.8-11.6-4.1-19.1-4.1-6.2 0-11.9 1.1-17 3.3-5.1 2.2-9.5 5.3-13.2 9.1-3.7 3.9-6.6 8.4-8.6 13.6s-3.1 10.9-3.1 17c0 6.7 1 12.8 3.1 18.3 2.3 5.5 5.2 10.2 9 14.2 3.8 3.9 8.4 7 13.8 9.2 5.4 2.2 11.4 3.3 17.9 3.3 6.4 0 12-.7 16.6-2.1 4.6-1.4 8.4-3 11.4-4.7 3-1.8 5.3-3.4 6.9-5l.4-.4-11.4-12.8c-.1.1-.2.2-.4.3-1.3 1.1-3.1 2.2-5.2 3.2s-4.7 1.9-7.6 2.6c-3 .8-6.5 1.1-10.5 1.1-2.7 0-5.4-.5-8.2-1.4-2.8-.9-5.2-2.3-7.4-4-2.2-1.8-3.9-3.9-5.3-6.3-1.4-2.5-2-5.2-2-8.3h61.5v-3c0-5.9-.7-11.6-2.1-17.2-1.4-5.6-3.7-10.7-6.9-15.1zm-52.7 20.4c.1-2.1.6-4.2 1.5-6.3s2.3-4 4-5.7c1.8-1.7 4-3.1 6.6-4.2 2.6-1.1 5.6-1.7 9-1.7 3.2 0 6 .6 8.4 1.7 2.5 1.1 4.5 2.5 6.1 4.2 1.6 1.7 2.8 3.6 3.6 5.7s1.2 4.2 1.2 6.3h-40.4zM511.7 35.7h20.7v82.4h-20.7zM511 .9h22.1v21.8H511zM618.4 50.7c-1.6-3.7-4-6.8-7-9.5-3-2.6-6.7-4.7-11-6.2s-9.1-2.2-14.3-2.2c-4.9 0-9.2.3-12.9 1-3.7.6-6.9 1.5-9.7 2.5s-5.3 2.1-7.4 3.3c-2.1 1.2-4 2.4-5.6 3.6l9.5 14.1c2.7-1.8 5.8-3.4 9.3-4.9s8.2-2.3 14.1-2.3c5.3 0 9.5 1.2 12.8 3.5s4.9 5.6 4.9 9.7v1.9c-2.2-.1-4.4-.2-6.5-.4-1.9-.1-3.8-.2-5.8-.3-2-.1-3.8-.1-5.4-.1-5.4 0-10.3.6-14.8 1.9-4.5 1.3-8.3 3.2-11.4 5.7-3.2 2.5-5.6 5.6-7.4 9.3-1.8 3.7-2.6 7.9-2.6 12.6 0 4.6.9 8.6 2.5 11.9 1.7 3.4 3.9 6.2 6.7 8.3 2.8 2.2 5.8 3.8 9.1 4.8 3.3 1.1 6.7 1.6 10.1 1.6 5.6 0 10.7-1.1 15.3-3.2 4.6-2.1 8-4.5 10.2-7.2l.5 7.7h19.3V62.7c0-4.3-.8-8.3-2.5-12zM601 88.9c0 2.1-.6 4.1-1.7 6-1.1 1.9-2.5 3.5-4.3 4.9-1.8 1.4-3.8 2.5-6.1 3.3s-4.7 1.2-7.1 1.2c-4.9 0-8.6-1-11.2-3-2.5-2-3.8-4.7-3.8-8.3 0-3.4 1.3-6.4 4-9 2.7-2.6 7.4-4 14.1-4 1.3 0 2.8 0 4.7.1 1.8.1 3.5.1 5.2.3 2 .1 4 .2 6.2.4v8.1zM298.1 84.2 241.3.9H219v117.2h21.6V33.8l57.3 84.3h21.8V.9h-21.6zM442.4 118.1 458.9 94l16.6 24.1h23.3l-28.2-41.2 28.2-41.2h-23.3l-16.6 24.1-16.5-24.1h-23.3l28.2 41.2-28.2 41.2z"/></svg>

-->
<svg  xmlns="http://www.w3.org/2000/svg" xmlns:xlink="http://www.w3.org/1999/xlink" viewBox="0 0 1227.3 340.2" xml:space="preserve" fill="#fff">
<path d="M167.9,267.2c-20.1,4.4-41.8-3.3-54.3-21.4l-33.2-47.8c-16.6-23.9-10.8-57,12.9-73.8
	c23.7-16.8,56.6-10.9,73.2,13l33.2,47.8c6.1,8.7,9.1,18.7,9.4,28.6c10.9,2.3,22.6,0.2,32.4-6.7c3.6-2.5,6.6-5.5,9.1-8.8
	c-2.4-13.3-7.6-26.2-15.7-38l-33.2-47.8c-30.2-43.5-89.9-54.1-133.1-23.7C25.5,119.2,15,179.4,45.2,222.9l33.2,47.8
	c30.2,43.5,89.9,54.1,133.1,23.7c6.4-4.5,12.1-9.7,17-15.3C207.6,281.2,186.5,277.1,167.9,267.2"/>
<path d="M129.6,45.7c-6.4,4.5-12.1,9.7-17,15.3c20.8-2.1,42,2,60.5,11.9c20.1-4.4,41.8,3.3,54.3,21.4l33.2,47.8
	c16.6,23.9,10.8,57-12.9,73.8c-23.7,16.8-56.6,10.9-73.2-13l-33.2-47.8c-6.1-8.7-9.1-18.7-9.4-28.6c-10.9-2.3-22.6-0.2-32.4,6.7
	c-3.6,2.5-6.6,5.5-9.1,8.8c2.4,13.3,7.6,26.2,15.7,38l33.2,47.8c30.2,43.5,89.9,54.1,133.1,23.7c43.2-30.5,53.7-90.7,23.5-134.2
	l-33.2-47.8C232.4,25.9,172.7,15.3,129.6,45.7"/>
<path d="M969.7,73.6c0,14-11.8,25.3-26.3,25.3c-14.5,0-26.3-11.3-26.3-25.3s11.8-25.3,26.3-25.3
	C957.9,48.3,969.7,59.6,969.7,73.6"/>
<path d="M723.7,253.1c-1.7,1.1-4.3,2.9-7.8,5.4c-3.5,2.5-8,5-13.5,7.4c-5.5,2.4-12.1,4.5-19.6,6.4
	c-7.6,1.9-16.2,2.8-26,2.8c-13,0-24.7-2-35.1-6.1c-10.4-4-19.2-9.7-26.5-16.9c-7.3-7.2-12.8-15.9-16.5-26
	c-3.8-10.1-5.7-21.3-5.7-33.5c0-10.7,1.8-21,5.4-30.9c3.6-9.9,8.7-18.6,15.4-26c6.7-7.4,14.9-13.4,24.7-17.8
	c9.7-4.5,20.8-6.7,33.1-6.7s23.2,2.2,32.5,6.5c9.3,4.4,17.2,10.4,23.5,18.2c6.4,7.7,11.2,17,14.4,27.8c3.3,10.8,4.9,22.6,4.9,35.5
	v7.9H618.5c0.2,8.3,3.8,15.5,10.9,21.8c7,6.2,16.7,9.3,29,9.3c12.1,0,22-1.8,29.5-5.4c7.6-3.6,13.1-6.7,16.6-9.3L723.7,253.1z
	 M682.8,176.8c0-3.3-0.7-6.6-1.9-10c-1.3-3.4-3.2-6.5-5.8-9.3c-2.6-2.8-5.8-5.2-9.7-7c-3.9-1.8-8.6-2.8-14-2.8
	c-5.4,0-10.2,0.9-14.3,2.8c-4.1,1.9-7.5,4.2-10.2,7c-2.7,2.8-4.8,5.9-6.2,9.3c-1.4,3.4-2.1,6.7-2.1,10H682.8z"/>
<polygon points="787.8,192.8 732.3,116.3 788.1,116.3 815.4,157.2 842.9,116.3 893.9,116.3 840.4,189.6 898.8,269.7 
	842.9,269.7 812.8,225.6 782.3,269.7 731.3,269.7 "/>
<rect x="920" y="116.3" width="46.7" height="153.5"/>
<path d="M1090.9,255.3c-5.2,6.1-11.7,10.8-19.6,14.1c-7.9,3.3-16.7,4.9-26.4,4.9c-5.4,0-11.1-0.8-17-2.3
	c-6-1.5-11.5-4.1-16.6-7.7c-5.1-3.6-9.3-8.4-12.7-14.6c-3.4-6.1-5-13.7-5-22.9c0-8.9,1.8-16.9,5.4-23.9c3.6-7,8.5-12.8,14.8-17.5
	c6.3-4.7,13.7-8.2,22.2-10.6c8.5-2.4,17.8-3.6,27.7-3.6c5.4,0,10.9,0.1,16.4,0.3c5.5,0.2,9.1,0.5,10.9,1v-3.3c0-3.9-0.8-7.3-2.4-10
	c-1.6-2.7-3.8-5-6.5-6.9c-2.7-1.8-5.8-3.2-9.2-3.9c-3.5-0.8-7.1-1.1-11-1.1c-10.4,0-19,1.3-25.8,3.9c-6.8,2.6-12.6,5.6-17.4,8.8
	l-19.1-28.8c3.2-2.4,6.9-4.8,11-7.2c4.1-2.4,9-4.6,14.6-6.5c5.6-2,11.9-3.5,19-4.7c7-1.2,15.1-1.8,24.2-1.8
	c23.2,0,40.2,6.3,51.3,18.8c11,12.5,16.6,29.4,16.6,50.6v89.3h-43.8L1090.9,255.3z M1090.9,202c-1.1-0.2-3.1-0.5-6.2-0.8
	c-3-0.3-6.5-0.5-10.4-0.5c-13,0-22.2,1.9-27.6,5.6c-5.4,3.7-8.1,9-8.1,15.7c0,12.7,7.6,19,22.7,19c3.7,0,7.3-0.6,10.9-1.8
	c3.6-1.2,6.7-2.9,9.4-5.1c2.7-2.2,4.9-4.9,6.7-8.2c1.7-3.3,2.6-7.1,2.6-11.5V202z"/>
<polygon points="370.6,71.8 407.8,71.8 501.9,187.8 501.9,71.8 548.8,71.8 548.8,269.7 511.3,269.7 417.4,153.8 
	417.4,269.7 370.6,269.7 "/>
</svg>
