<svg xmlns="http://www.w3.org/2000/svg" xml:space="preserve" viewBox="0 0 759.7 671.4"><path fill="#fff" d="M296.6 495.1c-17.6 0-34.4-3.5-49.8-9.8v42.5c15.8 4.8 32.5 7.4 49.8 7.4 51.5 0 97.8-22.8 129.3-58.9h-61.4c-19.9 12-43.1 18.8-67.9 18.8zM535.6 135.9c27.6 27.6 49.5 59.4 65.2 94h46c-1.2-3.1-2.4-6.1-3.7-9.1-18.2-43-44.3-81.7-77.4-114.9s-71.9-59.3-114.9-77.5C406.2 9.5 358.9 0 310.1 0c-4.5 0-9.1.1-13.6.3v42.5c4.5-.2 9-.3 13.6-.3 85.2-.1 165.3 33.1 225.5 93.4z"/><path fill="#fff" d="M366.9 74.7v43.6c44.5 11.4 85.2 34.5 118.5 67.8 15.8 15.8 29.2 33.2 40.3 51.9h48.1c-14.5-30-34.1-57.7-58.4-81.9-41.4-41.4-92.7-69.3-148.5-81.4zM301.9 629c-69.3 0-134.5-27-183.5-76s-76-114.2-76-183.5 27-134.5 76-183.5 114.2-76 183.5-76c7.9 0 15.8.4 23.6 1.1V68.5c-7.8-.6-15.7-.9-23.6-.9-80.6 0-156.4 31.4-213.5 88.4C31.4 213 0 288.8 0 369.5 0 450.1 31.4 525.9 88.4 583c57 57 132.8 88.4 213.5 88.4 19.2 0 38-1.8 56.4-5.3v-43.3c-18.2 4.1-37.1 6.2-56.4 6.2z"/><path fill="#fff" d="M325.4 552.8v41.6c51.9-5.2 100.1-27.9 137.4-65.3 15.9-15.9 29.1-33.6 39.4-52.8h-48.8c-29.4 41.2-75.3 69.9-128 76.5zM302.5 141.9c-60.6 0-117.6 23.6-160.4 66.4s-66.4 99.8-66.4 160.4 23.6 117.6 66.4 160.4c38.2 38.2 87.7 61.1 141 65.6v-41.6c-93.2-9.8-166-88.7-166-184.4 0-102.3 83.2-185.5 185.5-185.5 41.8 0 80.4 13.9 111.4 37.3V171c-33.7-19-71.9-29.1-111.5-29.1z"/><path fill="#fff" d="M278.8 435h-32l68.1-158.9h21.6L404.6 435h-32l-15-35.2h-63.8l-15 35.2zm46.8-109.4-20.2 47h40.4l-20.2-47zM445.7 435h-32l68.1-158.9h21.6L571.5 435h-32l-15-35.2h-63.8l-15 35.2zm46.7-109.4-20.2 47h40.4l-20.2-47zM656.1 301c-15 0-27.5 5.3-37.7 15.9-10.1 10.6-15.2 23.5-15.2 38.6 0 15.4 5.2 28.4 15.7 38.8 10.4 10.4 23.3 15.7 38.6 15.7 18.6 0 33.6-7.3 44.9-22l21.1 18.8c-7.3 9.2-16.7 16.6-28.3 22.1s-24.4 8.3-38.5 8.3c-24.5 0-44.7-7.8-60.5-23.5s-23.7-35.1-23.7-58.2c0-23.2 7.9-42.6 23.6-58.2 15.7-15.7 35.8-23.5 60.2-23.5 23.2 0 42.5 7.6 58.1 22.7l-19.7 20.9c-10.9-10.9-23.8-16.4-38.6-16.4zM733.5 273.8h10.1v2.4h-3.7v11.6h-2.7v-11.6h-3.7v-2.4zM747.6 273.8l5.1 8.4 5.1-8.4h1.9v14H757V280l-3.4 5.5h-1.8l-3.4-5.5v7.8h-2.7v-14h1.9z"/></svg>
